<svg width="55" height="62" viewBox="0 0 446 500" fill="none" xmlns="http://www.w3.org/2000/svg">
<path d="M185.327 138.232C182.936 137.42 180.4 137.13 177.888 137.379C175.376 137.628 172.946 138.412 170.761 139.677L8.74304 233.525C8.68304 233.56 8.62333 233.595 8.56433 233.632C0.364333 238.68 -2.25376 248.026 2.04724 256.889C7.41224 267.937 26.4172 278.338 49.3402 282.771C57.687 284.37 66.1677 285.169 74.6664 285.157C92.9134 285.157 115.313 281.565 140.117 269.999C159.383 261.017 177.703 241.399 189.124 217.515C201.156 192.353 203.539 166.971 195.662 147.877C194.726 145.625 193.32 143.6 191.537 141.937C189.755 140.273 187.637 139.01 185.327 138.232Z" fill="#7CE0D6"/>
<path d="M436.461 233.632C436.402 233.595 436.341 233.559 436.281 233.524L274.267 139.677C272.083 138.411 269.653 137.628 267.141 137.378C264.629 137.129 262.092 137.42 259.701 138.232C257.39 139.009 255.272 140.272 253.489 141.936C251.706 143.6 250.299 145.625 249.363 147.878C241.486 166.971 243.864 192.352 255.902 217.514C267.322 241.395 285.641 261.015 304.902 269.999C329.71 281.565 352.106 285.157 370.353 285.157C378.852 285.169 387.332 284.37 395.678 282.771C418.602 278.338 437.607 267.936 442.97 256.89C447.279 248.028 444.662 238.681 436.461 233.632Z" fill="#7CE0D6"/>
<path fill-rule="evenodd" clip-rule="evenodd" d="M156.394 7.7515C156.394 3.47046 159.864 0 164.145 0C177.545 0 190.397 5.32331 199.872 14.7987C209.348 24.274 214.671 37.1251 214.671 50.5254C214.671 54.8065 211.201 58.2769 206.919 58.2769C202.638 58.2769 199.168 54.8065 199.168 50.5254C199.168 41.237 195.478 32.329 188.91 25.761C182.342 19.193 173.434 15.503 164.145 15.503C159.864 15.503 156.394 12.0325 156.394 7.7515Z" fill="#2C3437"/>
<path fill-rule="evenodd" clip-rule="evenodd" d="M281.857 15.503C277.258 15.503 272.704 16.409 268.455 18.169C264.206 19.9291 260.345 22.5087 257.093 25.7609C253.841 29.013 251.261 32.8739 249.501 37.123C247.742 41.3719 246.836 45.9259 246.836 50.5252C246.836 54.8063 243.366 58.2768 239.085 58.2769C234.804 58.277 231.333 54.8066 231.333 50.5256C231.333 43.8907 232.639 37.3208 235.178 31.1905C237.717 25.0605 241.439 19.4905 246.131 14.7987C250.822 10.107 256.392 6.38536 262.522 3.84617C268.652 1.30701 275.222 0 281.857 0C286.138 0 289.609 3.47046 289.609 7.7515C289.609 12.0325 286.138 15.503 281.857 15.503Z" fill="#2C3437"/>
<path d="M298.935 271.423H131.481L207.55 315.323C212.099 317.961 217.264 319.352 222.523 319.354C227.782 319.357 232.948 317.973 237.5 315.34L313.6 271.42L298.935 271.423Z" fill="#2C3437"/>
<path d="M322.406 174.462H114.871V224.775H330.157V174.462H322.406Z" fill="#2C3437"/>
<path d="M315.222 128.899L313.342 127.814H131.743L129.854 128.906C125.314 131.534 121.541 135.307 118.913 139.848C116.285 144.389 114.893 149.54 114.875 154.787V174.462H330.161V154.79C330.142 149.547 328.754 144.4 326.134 139.858C323.513 135.317 319.752 131.539 315.222 128.899Z" fill="#FFDD0F"/>
<path d="M322.406 224.774H114.871V244.549C114.884 249.805 116.274 254.967 118.904 259.519C121.534 264.07 125.311 267.853 129.859 270.49L131.481 271.427H313.6L315.252 270.472C319.778 267.823 323.533 264.038 326.146 259.492C328.759 254.946 330.14 249.796 330.152 244.552V224.779L322.406 224.774Z" fill="#FFDD0F"/>
<path d="M237.508 84.0498C232.962 81.4155 227.8 80.0277 222.545 80.0269C217.291 80.026 212.129 81.4119 207.581 84.0447L131.739 127.815H313.343L237.508 84.0498Z" fill="#2C3437"/>
<g clip-path="url(#clip0)">
<path d="M11 407.384C14.3239 406.089 17.7251 404.566 21.3582 402.814C24.9913 401.063 28.4698 399.235 31.871 397.179C35.2722 395.122 38.5961 392.99 41.6881 390.705C44.8574 388.42 47.6402 386.06 50.1911 383.47H67.9701V496.946H42.4611V415.685C39.0599 417.894 35.1949 419.95 31.0207 421.778C26.7692 423.605 22.6723 425.205 18.73 426.499L11 407.384Z" fill="#2C3437"/>
<path d="M240.278 383.698C240.278 388.268 238.809 391.847 235.794 394.437C232.78 397.026 229.301 398.321 225.204 398.321C221.107 398.321 217.629 397.026 214.614 394.437C211.6 391.847 210.131 388.268 210.131 383.698C210.131 379.129 211.6 375.55 214.614 372.96C217.706 370.295 221.185 369 225.282 369C229.378 369 232.857 370.295 235.872 372.884C238.809 375.55 240.278 379.129 240.278 383.698ZM238.423 496.945H212.914V409.364H238.423V496.945Z" fill="#2C3437"/>
<path d="M288.292 496.944C282.495 485.825 276.697 472.878 270.745 457.951C264.793 443.1 259.15 426.878 253.894 409.362H280.562C281.722 413.703 283.036 418.349 284.582 423.451C286.128 428.478 287.674 433.58 289.375 438.759C290.998 443.938 292.621 448.964 294.322 453.838C295.945 458.712 297.568 463.13 299.192 467.166C300.66 463.206 302.206 458.712 303.907 453.838C305.608 448.964 307.308 443.938 308.931 438.759C310.555 433.58 312.178 428.478 313.647 423.451C315.193 418.425 316.507 413.703 317.666 409.362H343.716C338.383 426.878 332.817 443.1 326.865 457.951C320.913 472.802 315.115 485.825 309.318 496.944H288.292Z" fill="#2C3437"/>
<path d="M350.436 453.688C350.436 445.92 351.672 439.066 354.069 433.278C356.465 427.414 359.712 422.616 363.654 418.655C367.596 414.771 372.157 411.801 377.259 409.821C382.36 407.841 387.694 406.851 393.105 406.851C405.705 406.851 415.754 410.659 423.02 418.275C430.364 425.89 433.997 437.086 433.997 451.86C433.997 453.307 433.919 454.907 433.842 456.582C433.765 458.334 433.61 459.857 433.533 461.151H376.331C376.872 466.254 379.346 470.29 383.597 473.337C387.849 476.307 393.646 477.83 400.835 477.83C405.473 477.83 410.034 477.449 414.44 476.612C418.923 475.774 422.556 474.784 425.339 473.565L428.74 493.747C427.349 494.432 425.571 495.118 423.329 495.727C421.088 496.413 418.537 496.946 415.831 497.479C413.049 498.012 410.111 498.393 406.942 498.697C403.773 499.002 400.603 499.23 397.434 499.23C389.395 499.23 382.438 498.088 376.563 495.727C370.611 493.366 365.741 490.168 361.876 486.131C358.011 482.095 355.074 477.297 353.218 471.737C351.363 466.102 350.436 460.085 350.436 453.688ZM409.647 443.635C409.57 441.503 409.184 439.447 408.565 437.466C407.947 435.486 407.019 433.659 405.705 432.135C404.391 430.612 402.768 429.318 400.835 428.327C398.825 427.337 396.429 426.804 393.492 426.804C390.709 426.804 388.235 427.261 386.225 428.251C384.216 429.165 382.515 430.46 381.124 431.983C379.732 433.506 378.727 435.334 378.032 437.39C377.259 439.447 376.795 441.503 376.408 443.635H409.647Z" fill="#2C3437"/>
<path d="M165.001 383.47H191.283V496.946H165.001V448.966H121.713V496.946H95.4307V383.47H121.713V426.88H165.001V383.47Z" fill="#2C3437"/>
</g>
<defs>
<clipPath id="clip0">
<rect width="423" height="130.154" fill="white" transform="translate(11 369)"/>
</clipPath>
</defs>
</svg>
